<mxfile host="app.diagrams.net" modified="2021-05-13T22:24:15.965Z" agent="5.0 (Windows NT 10.0; Win64; x64) AppleWebKit/537.36 (KHTML, like Gecko) Chrome/90.0.4430.212 Safari/537.36" etag="Q07_OX7io0nVX5LVj9bf" version="14.6.10" type="github">
  <diagram id="c84FSs1QJycdeHYIc5h0" name="Page-1">
    <mxGraphModel dx="1492" dy="384" grid="1" gridSize="10" guides="1" tooltips="1" connect="1" arrows="1" fold="1" page="1" pageScale="1" pageWidth="827" pageHeight="1169" math="0" shadow="0">
      <root>
        <mxCell id="0" />
        <mxCell id="1" parent="0" />
        <mxCell id="6WloFLdq3ySwzS6vAKYb-1" value="&lt;i&gt;LinksComponent&lt;/i&gt;" style="rounded=1;whiteSpace=wrap;html=1;" vertex="1" parent="1">
          <mxGeometry x="277" y="720" width="120" height="60" as="geometry" />
        </mxCell>
        <mxCell id="6WloFLdq3ySwzS6vAKYb-2" value="&lt;i&gt;Link &lt;/i&gt;Interface" style="ellipse;whiteSpace=wrap;html=1;" vertex="1" parent="1">
          <mxGeometry x="-7" y="710" width="120" height="80" as="geometry" />
        </mxCell>
        <mxCell id="6WloFLdq3ySwzS6vAKYb-3" value="" style="endArrow=none;html=1;entryX=0.5;entryY=1;entryDx=0;entryDy=0;" edge="1" parent="1" target="6WloFLdq3ySwzS6vAKYb-2">
          <mxGeometry width="50" height="50" relative="1" as="geometry">
            <mxPoint x="53" y="860" as="sourcePoint" />
            <mxPoint x="353" y="810" as="targetPoint" />
          </mxGeometry>
        </mxCell>
        <mxCell id="6WloFLdq3ySwzS6vAKYb-4" value="" style="endArrow=classic;html=1;" edge="1" parent="1">
          <mxGeometry width="50" height="50" relative="1" as="geometry">
            <mxPoint x="53" y="860" as="sourcePoint" />
            <mxPoint x="113" y="860" as="targetPoint" />
          </mxGeometry>
        </mxCell>
        <mxCell id="6WloFLdq3ySwzS6vAKYb-5" value="" style="endArrow=none;html=1;" edge="1" parent="1">
          <mxGeometry width="50" height="50" relative="1" as="geometry">
            <mxPoint x="53" y="910" as="sourcePoint" />
            <mxPoint x="53" y="860" as="targetPoint" />
          </mxGeometry>
        </mxCell>
        <mxCell id="6WloFLdq3ySwzS6vAKYb-6" value="" style="endArrow=classic;html=1;" edge="1" parent="1">
          <mxGeometry width="50" height="50" relative="1" as="geometry">
            <mxPoint x="53" y="910" as="sourcePoint" />
            <mxPoint x="113" y="910" as="targetPoint" />
          </mxGeometry>
        </mxCell>
        <mxCell id="6WloFLdq3ySwzS6vAKYb-7" value="&lt;i&gt;name: String&lt;/i&gt;" style="text;html=1;align=center;verticalAlign=middle;resizable=0;points=[];autosize=1;strokeColor=none;" vertex="1" parent="1">
          <mxGeometry x="118" y="850" width="80" height="20" as="geometry" />
        </mxCell>
        <mxCell id="6WloFLdq3ySwzS6vAKYb-8" value="&lt;i&gt;imagePath: String&lt;/i&gt;" style="text;html=1;align=center;verticalAlign=middle;resizable=0;points=[];autosize=1;strokeColor=none;" vertex="1" parent="1">
          <mxGeometry x="113" y="900" width="110" height="20" as="geometry" />
        </mxCell>
        <mxCell id="6WloFLdq3ySwzS6vAKYb-9" value="" style="shape=curlyBracket;whiteSpace=wrap;html=1;rounded=1;" vertex="1" parent="1">
          <mxGeometry x="113" y="690" width="110" height="120" as="geometry" />
        </mxCell>
        <mxCell id="6WloFLdq3ySwzS6vAKYb-10" value="" style="endArrow=none;html=1;entryX=0.5;entryY=1;entryDx=0;entryDy=0;" edge="1" parent="1">
          <mxGeometry width="50" height="50" relative="1" as="geometry">
            <mxPoint x="337" y="850" as="sourcePoint" />
            <mxPoint x="337" y="780" as="targetPoint" />
          </mxGeometry>
        </mxCell>
        <mxCell id="6WloFLdq3ySwzS6vAKYb-11" value="" style="endArrow=classic;html=1;" edge="1" parent="1">
          <mxGeometry width="50" height="50" relative="1" as="geometry">
            <mxPoint x="337" y="850" as="sourcePoint" />
            <mxPoint x="397" y="850" as="targetPoint" />
          </mxGeometry>
        </mxCell>
        <mxCell id="6WloFLdq3ySwzS6vAKYb-12" value="&lt;i&gt;link = {&lt;br&gt;&lt;br&gt;name: &#39;BLM protest causes the parliament &lt;br&gt;to pass a bill aiming regulating police officers behaviour&#39;,&lt;br&gt;&lt;br&gt;imagePath:&#39;/dummy/imagePath&#39;&lt;br&gt;&lt;br&gt;};&lt;/i&gt;" style="text;whiteSpace=wrap;html=1;" vertex="1" parent="1">
          <mxGeometry x="403" y="820" width="340" height="70" as="geometry" />
        </mxCell>
        <mxCell id="6WloFLdq3ySwzS6vAKYb-13" value="Stage 1: &lt;i&gt;Link &lt;/i&gt;interface and &lt;i&gt;LinksComponent &lt;/i&gt;added" style="text;html=1;align=center;verticalAlign=middle;resizable=0;points=[];autosize=1;strokeColor=none;" vertex="1" parent="1">
          <mxGeometry x="18" y="600" width="290" height="20" as="geometry" />
        </mxCell>
      </root>
    </mxGraphModel>
  </diagram>
</mxfile>
